<svg width="114" height="39" viewBox="0 0 114 39" fill="none" xmlns="http://www.w3.org/2000/svg">
<g filter="url(#filter0_d_636_866)">
<path d="M28.8786 24.8474C29.4152 24.8474 29.6835 25.1484 29.6835 25.7504C29.6835 26.2477 29.304 26.7451 28.5449 27.2424C27.1314 28.1716 25.9404 28.7802 24.972 29.0681C23.1528 29.6047 21.242 29.873 19.2396 29.873C17.2372 29.873 15.3068 29.5196 13.4483 28.8129C11.603 28.0931 10.0259 27.0919 8.71715 25.8093C5.98184 23.1132 4.61418 19.6319 4.61418 15.3654C4.61418 13.3106 5.00026 11.426 5.77243 9.71154C6.5446 7.98397 7.61124 6.50507 8.97235 5.27484C11.8516 2.6704 15.4704 1.36819 19.8285 1.36819C22.2759 1.36819 24.4288 1.78699 26.2873 2.6246C28.2635 3.50147 29.2516 4.24746 29.2516 4.86258C29.2516 5.11124 29.1665 5.32719 28.9964 5.51041C28.8393 5.69364 28.6561 5.78525 28.4467 5.78525C28.0279 5.78525 27.6484 5.60203 27.3081 5.23557C26.9678 4.85603 26.5032 4.51576 25.9143 4.21474C25.3384 3.91373 24.7037 3.65197 24.01 3.42949C22.5966 2.99759 21.3074 2.78165 20.1426 2.78165C18.9909 2.78165 18.0355 2.86017 17.2764 3.01723V28.1847C18.1926 28.3417 19.004 28.4203 19.7107 28.4203C20.4175 28.4203 21.1373 28.3745 21.8702 28.2829C22.6031 28.1912 23.3229 28.0407 24.0296 27.8313C25.6132 27.3602 26.8042 26.6665 27.6026 25.7504C27.8905 25.4101 28.1195 25.1745 28.2897 25.0437C28.4598 24.9128 28.6561 24.8474 28.8786 24.8474ZM43.504 28.0865C43.0459 27.8248 42.6468 27.5499 42.3065 27.262C41.9793 26.9741 41.8157 26.6665 41.8157 26.3393C41.8157 25.7111 42.084 25.397 42.6206 25.397C42.974 25.397 43.3666 25.5933 43.7985 25.986C44.2304 26.3786 44.7146 26.7254 45.2512 27.0264C45.7878 27.3144 46.3702 27.563 46.9984 27.7724C48.2941 28.2043 49.4916 28.4203 50.5909 28.4203C51.6903 28.4203 52.5345 28.3483 53.1234 28.2043C53.7254 28.0604 54.2293 27.864 54.635 27.6154C55.4988 27.0788 55.9307 26.3917 55.9307 25.5541C55.9307 24.7819 55.5577 24.0032 54.8117 23.2179C54.1835 22.5505 53.2935 21.7521 52.1418 20.8229L48.7849 18.1923C45.4213 15.601 43.4386 13.2321 42.8365 11.0857C42.6271 10.3397 42.5224 9.50868 42.5224 8.59255C42.5224 7.67641 42.7253 6.77337 43.131 5.88341C43.5498 4.99345 44.1649 4.21474 44.9764 3.54727C46.717 2.09455 49.0859 1.36819 52.0829 1.36819C53.6142 1.36819 54.9884 1.59722 56.2055 2.05529C57.4227 2.50026 58.2537 2.89944 58.6987 3.2528C59.1437 3.60617 59.3662 3.92681 59.3662 4.21474C59.3662 4.81677 59.1175 5.11779 58.6202 5.11779C58.3323 5.11779 58.0247 4.97382 57.6975 4.6859C57.3703 4.39797 57.0039 4.1493 56.5982 3.9399C56.2055 3.71741 55.754 3.5211 55.2436 3.35096C54.1442 2.98451 53.0645 2.80128 52.0044 2.80128C50.0544 2.80128 49.0793 3.44257 49.0793 4.72516C49.0793 5.26175 49.256 5.75908 49.6094 6.21715C50.2376 7.01549 51.4613 8.16066 53.2805 9.65264C55.1127 11.1315 56.5785 12.4272 57.6779 13.5397C58.7903 14.6521 59.6345 15.6533 60.2103 16.5433C61.1265 17.9436 61.5845 19.4029 61.5845 20.9211C61.5845 22.4261 61.3162 23.7087 60.7796 24.7688C60.2561 25.8158 59.5167 26.7189 58.5613 27.478C56.5458 29.0747 54.0461 29.873 51.0621 29.873C48.0781 29.873 45.5588 29.2775 43.504 28.0865ZM73.3437 29.7945C73.0951 29.7683 72.9053 29.6571 72.7744 29.4607C72.6436 29.2644 72.5912 29.0485 72.6174 28.8129C72.6828 28.4072 72.8072 28.0342 72.9904 27.6939C73.1736 27.3536 73.3045 27.0984 73.383 26.9283C73.4746 26.7581 73.5662 26.5684 73.6578 26.359L74.4038 24.6314L82.4724 0.465142L91.1494 17.2304L99.5713 0.465142L109.642 29.5H99.1002L94.2316 14.5016L86.6931 30.2067L78.762 16.0721L76.0136 24.651C75.5817 25.6064 75.2742 26.4179 75.0909 27.0853C74.9077 27.7528 74.7572 28.2698 74.6394 28.6362C74.3777 29.4607 73.9458 29.8468 73.3437 29.7945Z" fill="url(#paint0_linear_636_866)"/>
</g>
<defs>
<filter id="filter0_d_636_866" x="0.614258" y="0.464844" width="113.028" height="37.7422" filterUnits="userSpaceOnUse" color-interpolation-filters="sRGB">
<feFlood flood-opacity="0" result="BackgroundImageFix"/>
<feColorMatrix in="SourceAlpha" type="matrix" values="0 0 0 0 0 0 0 0 0 0 0 0 0 0 0 0 0 0 127 0" result="hardAlpha"/>
<feOffset dy="4"/>
<feGaussianBlur stdDeviation="2"/>
<feComposite in2="hardAlpha" operator="out"/>
<feColorMatrix type="matrix" values="0 0 0 0 0 0 0 0 0 0 0 0 0 0 0 0 0 0 0.25 0"/>
<feBlend mode="normal" in2="BackgroundImageFix" result="effect1_dropShadow_636_866"/>
<feBlend mode="normal" in="SourceGraphic" in2="effect1_dropShadow_636_866" result="shape"/>
</filter>
<linearGradient id="paint0_linear_636_866" x1="56.5" y1="-7.5" x2="56.5" y2="41.5" gradientUnits="userSpaceOnUse">
<stop stop-color="#FF0000"/>
<stop offset="1" stop-color="#990000"/>
</linearGradient>
</defs>
</svg>
